<svg width="24" height="24" viewBox="0 0 24 24" fill="none" xmlns="http://www.w3.org/2000/svg">
<path d="M14.75 17.2708C14.75 18.7895 13.5188 20.0208 12 20.0208C10.4812 20.0208 9.24999 18.7895 9.24999 17.2708M17.5 10.1208C17.5 8.85656 16.9205 6.26905 15.8891 5.37513C14.8576 4.4812 13.4587 3.979 12 3.979C10.5413 3.979 9.14235 4.4812 8.1109 5.37513C7.07945 6.26905 6.49999 8.85656 6.49999 10.1208C6.49999 12.2124 5.98127 13.7421 5.33405 14.8367C4.59638 16.0842 4.22755 16.708 4.24211 16.857C4.25878 17.0275 4.28946 17.0813 4.42772 17.1824C4.54856 17.2708 5.15571 17.2708 6.36999 17.2708H17.63C18.8443 17.2708 19.4514 17.2708 19.5723 17.1824C19.7105 17.0813 19.7412 17.0275 19.7579 16.857C19.7724 16.708 19.4036 16.0842 18.6659 14.8367C18.0187 13.7421 17.5 12.2124 17.5 10.1208Z" stroke="#212529" stroke-width="1.375" stroke-linecap="round" stroke-linejoin="round"/>
</svg>
