<svg width="24" height="24" viewBox="0 0 24 24" fill="none" xmlns="http://www.w3.org/2000/svg">
<path d="M12 12.8125C12.4487 12.8125 12.8125 12.4487 12.8125 12C12.8125 11.5513 12.4487 11.1875 12 11.1875C11.5513 11.1875 11.1875 11.5513 11.1875 12C11.1875 12.4487 11.5513 12.8125 12 12.8125Z" fill="#212529"/>
<path d="M12 7.125C12.4487 7.125 12.8125 6.76123 12.8125 6.3125C12.8125 5.86377 12.4487 5.5 12 5.5C11.5513 5.5 11.1875 5.86377 11.1875 6.3125C11.1875 6.76123 11.5513 7.125 12 7.125Z" fill="#212529"/>
<path d="M12 18.5C12.4487 18.5 12.8125 18.1362 12.8125 17.6875C12.8125 17.2388 12.4487 16.875 12 16.875C11.5513 16.875 11.1875 17.2388 11.1875 17.6875C11.1875 18.1362 11.5513 18.5 12 18.5Z" fill="#212529"/>
<path d="M12 12.8125C12.4487 12.8125 12.8125 12.4487 12.8125 12C12.8125 11.5513 12.4487 11.1875 12 11.1875C11.5513 11.1875 11.1875 11.5513 11.1875 12C11.1875 12.4487 11.5513 12.8125 12 12.8125Z" stroke="#212529" stroke-linecap="round" stroke-linejoin="round"/>
<path d="M12 7.125C12.4487 7.125 12.8125 6.76123 12.8125 6.3125C12.8125 5.86377 12.4487 5.5 12 5.5C11.5513 5.5 11.1875 5.86377 11.1875 6.3125C11.1875 6.76123 11.5513 7.125 12 7.125Z" stroke="#212529" stroke-linecap="round" stroke-linejoin="round"/>
<path d="M12 18.5C12.4487 18.5 12.8125 18.1362 12.8125 17.6875C12.8125 17.2388 12.4487 16.875 12 16.875C11.5513 16.875 11.1875 17.2388 11.1875 17.6875C11.1875 18.1362 11.5513 18.5 12 18.5Z" stroke="#212529" stroke-linecap="round" stroke-linejoin="round"/>
</svg>
