<svg width="24" height="24" viewBox="0 0 24 24" fill="none" xmlns="http://www.w3.org/2000/svg">
<g clip-path="url(#clip0_57_2323)">
<path fill-rule="evenodd" clip-rule="evenodd" d="M16.5 3.40723H3C2.44772 3.40723 2 3.85494 2 4.40723V18.993C2 19.2582 2.10536 19.5126 2.29289 19.7001L3.20711 20.6143C3.39464 20.8019 3.649 20.9072 3.91421 20.9072H17C17.824 20.9072 18.2944 19.9665 17.8 19.3072L17.7 19.1739C17.5702 19.0008 17.5 18.7903 17.5 18.5739V4.40723C17.5 3.85494 17.0523 3.40723 16.5 3.40723ZM5 8.90723C4.72386 8.90723 4.5 9.13108 4.5 9.40723C4.5 9.68337 4.72386 9.90723 5 9.90723H12.5C12.7761 9.90723 13 9.68337 13 9.40723C13 9.13108 12.7761 8.90723 12.5 8.90723H5ZM5 12.9072C4.72386 12.9072 4.5 13.1311 4.5 13.4072C4.5 13.6834 4.72386 13.9072 5 13.9072H10C10.2761 13.9072 10.5 13.6834 10.5 13.4072C10.5 13.1311 10.2761 12.9072 10 12.9072H5ZM20 8.40723C19.4477 8.40723 19 8.85494 19 9.40723V18.4072C19 18.9595 19.4477 19.4072 20 19.4072H21C21.5523 19.4072 22 18.9595 22 18.4072V9.40723C22 8.85494 21.5523 8.40723 21 8.40723H20Z" fill="#212529"/>
</g>
<defs>
<clipPath id="clip0_57_2323">
<rect width="24" height="24" fill="white"/>
</clipPath>
</defs>
</svg>
