<svg width="14" height="14" viewBox="0 0 14 14" fill="none" xmlns="http://www.w3.org/2000/svg">
<path d="M7.00001 8.75C5.1508 8.75 3.50631 9.64287 2.45934 11.0285C2.23401 11.3267 2.12134 11.4758 2.12503 11.6773C2.12787 11.833 2.22564 12.0294 2.34815 12.1256C2.50671 12.25 2.72644 12.25 3.1659 12.25H10.8341C11.2736 12.25 11.4933 12.25 11.6519 12.1256C11.7744 12.0294 11.8722 11.833 11.875 11.6773C11.8787 11.4758 11.766 11.3267 11.5407 11.0285C10.4937 9.64287 8.84923 8.75 7.00001 8.75Z" fill="#ACB0B9"/>
<path d="M7.00001 7C8.44976 7 9.62501 5.82475 9.62501 4.375C9.62501 2.92525 8.44976 1.75 7.00001 1.75C5.55027 1.75 4.37501 2.92525 4.37501 4.375C4.37501 5.82475 5.55027 7 7.00001 7Z" fill="#ACB0B9"/>
</svg>
