<svg width="40" height="40" viewBox="0 0 40 40" fill="none" xmlns="http://www.w3.org/2000/svg">
<rect width="40" height="40" rx="20" fill="#F2F3F7"/>
<path d="M20 20.6665C20.3682 20.6665 20.6666 20.368 20.6666 19.9998C20.6666 19.6316 20.3682 19.3332 20 19.3332C19.6318 19.3332 19.3333 19.6316 19.3333 19.9998C19.3333 20.368 19.6318 20.6665 20 20.6665Z" fill="#212529"/>
<path d="M20 15.9998C20.3682 15.9998 20.6666 15.7014 20.6666 15.3332C20.6666 14.965 20.3682 14.6665 20 14.6665C19.6318 14.6665 19.3333 14.965 19.3333 15.3332C19.3333 15.7014 19.6318 15.9998 20 15.9998Z" fill="#212529"/>
<path d="M20 25.3332C20.3682 25.3332 20.6666 25.0347 20.6666 24.6665C20.6666 24.2983 20.3682 23.9998 20 23.9998C19.6318 23.9998 19.3333 24.2983 19.3333 24.6665C19.3333 25.0347 19.6318 25.3332 20 25.3332Z" fill="#212529"/>
<path d="M20 20.6665C20.3682 20.6665 20.6666 20.368 20.6666 19.9998C20.6666 19.6316 20.3682 19.3332 20 19.3332C19.6318 19.3332 19.3333 19.6316 19.3333 19.9998C19.3333 20.368 19.6318 20.6665 20 20.6665Z" stroke="#212529" stroke-width="1.5" stroke-linecap="round" stroke-linejoin="round"/>
<path d="M20 15.9998C20.3682 15.9998 20.6666 15.7014 20.6666 15.3332C20.6666 14.965 20.3682 14.6665 20 14.6665C19.6318 14.6665 19.3333 14.965 19.3333 15.3332C19.3333 15.7014 19.6318 15.9998 20 15.9998Z" stroke="#212529" stroke-width="1.5" stroke-linecap="round" stroke-linejoin="round"/>
<path d="M20 25.3332C20.3682 25.3332 20.6666 25.0347 20.6666 24.6665C20.6666 24.2983 20.3682 23.9998 20 23.9998C19.6318 23.9998 19.3333 24.2983 19.3333 24.6665C19.3333 25.0347 19.6318 25.3332 20 25.3332Z" stroke="#212529" stroke-width="1.5" stroke-linecap="round" stroke-linejoin="round"/>
</svg>
