<svg width="11" height="11" viewBox="0 0 11 11" fill="none" xmlns="http://www.w3.org/2000/svg">
<path fill-rule="evenodd" clip-rule="evenodd" d="M5.19053 10.8722C4.96187 10.7978 4.76308 10.5985 4.36551 10.2C2.55114 8.38126 1 6.64214 1 4.57861C1 2.09333 3.01472 0.0786133 5.5 0.0786133C7.98528 0.0786133 10 2.09333 10 4.57861C10 6.64214 8.44886 8.38126 6.63449 10.2L6.63448 10.2C6.23691 10.5985 6.03813 10.7978 5.80947 10.8722C5.60866 10.9376 5.39134 10.9376 5.19053 10.8722ZM7.18511 4.57599C7.18511 5.50805 6.42953 6.26363 5.49746 6.26363C4.5654 6.26363 3.80982 5.50805 3.80982 4.57599C3.80982 3.64393 4.5654 2.88834 5.49746 2.88834C6.42953 2.88834 7.18511 3.64393 7.18511 4.57599Z" fill="#868E96"/>
</svg>
