<svg width="23" height="23" viewBox="0 0 23 23" fill="none" xmlns="http://www.w3.org/2000/svg">
<path d="M4.15849 19.743L10.4252 13.513C10.8014 13.1389 10.9895 12.9519 11.2064 12.8819C11.3972 12.8202 11.6028 12.8202 11.7936 12.8819C12.0105 12.9519 12.1986 13.1389 12.5748 13.513L18.7997 19.7015M13.4 14.3333L16.1252 11.6241C16.5014 11.2501 16.6895 11.063 16.9064 10.993C17.0972 10.9313 17.3028 10.9313 17.4936 10.993C17.7105 11.063 17.8986 11.2501 18.2748 11.6241L21 14.3333M9.6 8.66667C9.6 9.70987 8.74934 10.5556 7.7 10.5556C6.65066 10.5556 5.8 9.70987 5.8 8.66667C5.8 7.62346 6.65066 6.77778 7.7 6.77778C8.74934 6.77778 9.6 7.62346 9.6 8.66667ZM6.56 20H16.44C18.0361 20 18.8342 20 19.4439 19.6912C19.9801 19.4195 20.4161 18.9861 20.6894 18.453C21 17.8469 21 17.0535 21 15.4667V7.53333C21 5.94652 21 5.15311 20.6894 4.54703C20.4161 4.0139 19.9801 3.58046 19.4439 3.30881C18.8342 3 18.0361 3 16.44 3H6.56C4.96385 3 4.16578 3 3.55613 3.30881C3.01987 3.58046 2.58387 4.0139 2.31063 4.54703C2 5.15311 2 5.94652 2 7.53333V15.4667C2 17.0535 2 17.8469 2.31063 18.453C2.58387 18.9861 3.01987 19.4195 3.55613 19.6912C4.16578 20 4.96385 20 6.56 20Z" stroke="white" stroke-width="1.875" stroke-linecap="round" stroke-linejoin="round"/>
</svg>
