<svg width="16" height="16" viewBox="0 0 16 16" fill="none" xmlns="http://www.w3.org/2000/svg">
<path d="M1 8C1 11.866 4.13401 15 8 15C8.93111 15 9.81976 14.8182 10.6324 14.4882C10.7879 14.425 10.8657 14.3934 10.9286 14.3793C10.99 14.3656 11.0355 14.3605 11.0986 14.3605C11.163 14.3605 11.2332 14.3722 11.3735 14.3956L14.1407 14.8568C14.4305 14.9051 14.5754 14.9292 14.6802 14.8843C14.7719 14.845 14.845 14.7719 14.8843 14.6802C14.9292 14.5754 14.9051 14.4305 14.8568 14.1407L14.3956 11.3735C14.3722 11.2332 14.3605 11.163 14.3605 11.0986C14.3605 11.0355 14.3656 10.99 14.3793 10.9286C14.3934 10.8657 14.425 10.7879 14.4882 10.6324C14.8182 9.81976 15 8.93111 15 8C15 4.13401 11.866 1 8 1C4.13401 1 1 4.13401 1 8Z" stroke="#868E96" stroke-linecap="round" stroke-linejoin="round"/>
</svg>
