<svg width="36" height="36" viewBox="0 0 36 36" fill="none" xmlns="http://www.w3.org/2000/svg">
<circle cx="18" cy="18" r="18" fill="white"/>
<path fill-rule="evenodd" clip-rule="evenodd" d="M20 9C21.2367 9 22.2987 9.74834 22.7577 10.8169L22.829 11H25C26.5385 11 27.8065 12.1581 27.9798 13.6501L27.9949 13.8237L28 14V24C28 25.5977 26.7511 26.9037 25.1763 26.9949L25 27H11C9.40232 27 8.09634 25.7511 8.00509 24.1763L8 24V14C8 12.4023 9.24892 11.0963 10.8237 11.0051L11 11H13.17L13.2467 10.8067C13.6601 9.85414 14.5534 9.15812 15.6215 9.02365L15.8237 9.00509L16 9H20ZM20 11H16C15.4872 11 15.0645 11.386 15.0067 11.8834L15 12V13H11C10.4872 13 10.0645 13.386 10.0067 13.8834L10 14V24C10 24.5128 10.386 24.9355 10.8834 24.9933L11 25H25C25.5128 25 25.9355 24.614 25.9933 24.1166L26 24V14C26 13.4872 25.614 13.0645 25.1166 13.0067L25 13H21V12C21 11.4872 20.614 11.0645 20.1166 11.0067L20 11ZM18 14C20.7614 14 23 16.2386 23 19C23 21.7614 20.7614 24 18 24C15.2386 24 13 21.7614 13 19C13 16.2386 15.2386 14 18 14ZM18 16C16.3431 16 15 17.3431 15 19C15 20.6569 16.3431 22 18 22C19.6569 22 21 20.6569 21 19C21 17.3431 19.6569 16 18 16Z" fill="#3D4350"/>
</svg>
