<svg width="16" height="16" viewBox="0 0 16 16" fill="none" xmlns="http://www.w3.org/2000/svg">
<path fill-rule="evenodd" clip-rule="evenodd" d="M7.32999 1.57581C5.22362 3.12174 2 6.09205 2 8.60567C2 12.1057 4.5 14.6057 8 14.6057C11.5 14.6057 14 11.6057 14 9.60567C14 6.50626 12.1988 4.90784 9.99209 2.94954C9.53736 2.546 9.06541 2.12718 8.58845 1.67679C8.24187 1.34952 7.71428 1.29376 7.32999 1.57581ZM7.38726 7.25192C6.35084 7.97343 5 9.16627 5 10.189C5 11.7446 6.25 12.8557 8 12.8557C9.75 12.8557 11 11.5223 11 10.6334C11 9.25593 10.0994 8.54552 8.99605 7.67517C8.85296 7.5623 8.70647 7.44674 8.55809 7.32669C8.21987 7.05305 7.74432 7.00335 7.38726 7.25192Z" fill="#D75C5F"/>
</svg>
