<svg width="24" height="24" viewBox="0 0 24 24" fill="none" xmlns="http://www.w3.org/2000/svg">
<path d="M16.5 7.39111C19.6712 8.14966 22 10.6679 22 13.6574C22 14.522 21.8052 15.3472 21.4516 16.1018C21.3839 16.2462 21.3501 16.3184 21.335 16.3768C21.3202 16.4339 21.3148 16.4762 21.3148 16.5347C21.3148 16.5945 21.3273 16.6597 21.3524 16.79L21.8466 19.3596C21.8983 19.6286 21.9242 19.7632 21.876 19.8605C21.8339 19.9456 21.7556 20.0135 21.6573 20.05C21.5451 20.0917 21.3898 20.0693 21.0794 20.0245L18.1145 19.5962C17.9641 19.5745 17.8889 19.5636 17.8199 19.5636C17.7524 19.5636 17.7036 19.5683 17.6377 19.5811C17.5704 19.5942 17.4871 19.6235 17.3204 19.6822C16.4497 19.9886 15.4976 20.1574 14.5 20.1574C11.3555 20.1574 8.66296 18.4803 7.54839 16.1018" stroke="#212529" stroke-linecap="round" stroke-linejoin="round"/>
<path d="M17 9.65723C17 13.2471 13.6421 16.1572 9.5 16.1572C8.50238 16.1572 7.55025 15.9884 6.67958 15.682C6.51294 15.6233 6.42962 15.594 6.36227 15.5809C6.29638 15.5681 6.24763 15.5634 6.18011 15.5634C6.11109 15.5634 6.03591 15.5743 5.88554 15.596L2.92063 16.0242C2.61015 16.0691 2.45491 16.0915 2.34265 16.0498C2.2444 16.0133 2.16611 15.9454 2.12397 15.8603C2.07582 15.763 2.10169 15.6284 2.15344 15.3593L2.64759 12.7898C2.67265 12.6594 2.68518 12.5943 2.68517 12.5345C2.68516 12.4759 2.67976 12.4337 2.665 12.3766C2.6499 12.3182 2.61606 12.246 2.54839 12.1016C2.19478 11.347 2 10.5218 2 9.65723C2 6.06738 5.35786 3.15723 9.5 3.15723C13.6421 3.15723 17 6.06738 17 9.65723Z" stroke="#212529" stroke-linecap="round" stroke-linejoin="round"/>
</svg>
