<svg width="40" height="40" viewBox="0 0 40 40" fill="none" xmlns="http://www.w3.org/2000/svg">
<rect width="40" height="40" rx="20" fill="#F2F3F7"/>
<path d="M15.625 19.125C14.8113 19.125 14.4044 19.125 14.0706 19.2144C13.1647 19.4572 12.4572 20.1647 12.2144 21.0706C12.125 21.4044 12.125 21.8113 12.125 22.625V23.675C12.125 25.1451 12.125 25.8802 12.4111 26.4417C12.6628 26.9357 13.0643 27.3372 13.5583 27.5889C14.1198 27.875 14.8549 27.875 16.325 27.875H23.675C25.1451 27.875 25.8802 27.875 26.4417 27.5889C26.9357 27.3372 27.3372 26.9357 27.5889 26.4417C27.875 25.8802 27.875 25.1451 27.875 23.675V22.625C27.875 21.8113 27.875 21.4044 27.7856 21.0706C27.5428 20.1647 26.8353 19.4572 25.9294 19.2144C25.5956 19.125 25.1887 19.125 24.375 19.125M23.5 15.625L20 12.125M20 12.125L16.5 15.625M20 12.125V22.625" stroke="#212529" stroke-width="1.5" stroke-linecap="round" stroke-linejoin="round"/>
</svg>
